<?xml version="1.0" encoding="UTF-8"?><svg id="a" xmlns="http://www.w3.org/2000/svg" viewBox="0 0 32 32"><defs><style>.b{fill:#1ed760;}</style></defs><rect width="32" height="32" rx="7.96" ry="7.96"/><path class="b" d="M17.78,13.89l-1.58-.47c-3.17-.94-4.06-1.29-4.06-2.56,0-1.21,1.34-2.51,4.29-2.51s5.38,1.42,6.66,2.48c.22,.18,.45,.1,.45-.18V6.46c0-.18-.05-.28-.18-.39-1.58-1.17-4.31-2.03-7.06-2.03-5.6,0-8.95,3.19-8.95,6.81,0,4.09,2.6,5.52,6.87,6.72l1.84,.52c3.2,.91,3.79,1.71,3.79,2.95,0,2.08-1.58,2.72-3.92,2.72-2.95,0-6.55-1.73-8.25-3.84-.15-.18-.34-.1-.34,.12v4.59c0,.18,.02,.27,.15,.42,1.41,1.54,4.78,2.9,8.7,2.9,4.83,0,8.45-2.82,8.45-7.17,0-3.39-1.99-5.43-6.87-6.89Z"/></svg>